# xmcd
#
# Track frame offsets:
#	150
#	48231
#	92450
#	133466
#	153951
#	202385
#	244708
#	262430
#	288877
#	315300
#	341259
#
# Disc length: 4719 seconds
#
# Revision: 0
# Processed by: cddbd v1.5.2PL0 Copyright (c) Steve Scherf et al.
# Submitted via: EasyCDDAExtractor 11.6.0.1
#
DISCID=a0126d0b
DTITLE=Jimi Hendrix - Singing The Blues In New York City
DYEAR=1969
DGENRE=Blues
TTITLE0=Lord I Sing The Blues For Me And You (Take 1)
TTITLE1=Lord I Sing The Blues For Me And You (Take 2)
TTITLE2=Lord I Sing The Blues For Me And You (Take 3)
TTITLE3=Lover Man
TTITLE4=Lord I Sing The Blues For Me And You (Take 4)
TTITLE5=Untitled Instrumental Jam
TTITLE6=Valleys Of Neptune (Take 1)
TTITLE7=Valleys Of Neptune (Take 2)
TTITLE8=Valleys Of Neptune (Take 3)
TTITLE9=Valleys Of Neptune (Take 4)
TTITLE10=Valleys Of Neptune (Take 5)
EXTD=
EXTT0=
EXTT1=
EXTT2=
EXTT3=
EXTT4=
EXTT5=
EXTT6=
EXTT7=
EXTT8=
EXTT9=
EXTT10=
PLAYORDER=
